<svg width="16" height="15" viewBox="0 0 16 15" fill="none" xmlns="http://www.w3.org/2000/svg">
<g id="Group">
<path id="Vector" d="M11.0557 0.333245C10.4858 0.336416 9.92224 0.452795 9.39773 0.675621C8.87322 0.898448 8.39822 1.22328 8.00033 1.63125C7.40964 1.02061 6.65011 0.600221 5.81902 0.423927C4.98794 0.247633 4.12315 0.323463 3.33542 0.641703C2.5477 0.959942 1.87292 1.5061 1.39752 2.21021C0.922123 2.91433 0.667751 3.74433 0.666992 4.59391C0.666992 8.48991 7.32966 13.9646 7.61366 14.1939C7.72297 14.2827 7.8595 14.3312 8.00033 14.3312C8.14115 14.3312 8.27768 14.2827 8.38699 14.1939C8.67099 13.9646 15.3337 8.48991 15.3337 4.59391C15.33 3.46205 14.8775 2.37786 14.0755 1.57914C13.2735 0.78041 12.1875 0.332357 11.0557 0.333245Z" fill="white"/>
</g>
</svg>
