<svg width="16" height="17" viewBox="0 0 16 17" fill="none" xmlns="http://www.w3.org/2000/svg">
<path fill-rule="evenodd" clip-rule="evenodd" d="M6.39961 3.50015C4.6323 3.50015 3.19961 4.93283 3.19961 6.70015C3.19961 8.46743 4.6323 9.90015 6.39961 9.90015C8.16689 9.90015 9.59961 8.46743 9.59961 6.70015C9.59961 4.93283 8.16689 3.50015 6.39961 3.50015ZM1.59961 6.70015C1.59961 4.04918 3.74864 1.90015 6.39961 1.90015C9.05057 1.90015 11.1996 4.04918 11.1996 6.70015C11.1996 7.73681 10.871 8.69671 10.3122 9.48135L14.1653 13.3345C14.4777 13.6469 14.4777 14.1534 14.1653 14.4658C13.8529 14.7782 13.3463 14.7782 13.0339 14.4658L9.18081 10.6127C8.39617 11.1715 7.43627 11.5001 6.39961 11.5001C3.74864 11.5001 1.59961 9.35111 1.59961 6.70015Z" fill="#64748B"/>
</svg>
